<?xml version="1.0" encoding="utf-8"?>
<!-- Generator: Adobe Illustrator 16.0.0, SVG Export Plug-In . SVG Version: 6.00 Build 0)  -->
<!DOCTYPE svg PUBLIC "-//W3C//DTD SVG 1.1//EN" "http://www.w3.org/Graphics/SVG/1.1/DTD/svg11.dtd">
<svg version="1.1" id="圖層_1" xmlns="http://www.w3.org/2000/svg" xmlns:xlink="http://www.w3.org/1999/xlink" x="0px" y="0px"
	 width="520.872px" height="595.28px" viewBox="0 0 520.872 595.28" enable-background="new 0 0 520.872 595.28"
	 xml:space="preserve">
<g>
	<path fill="#A6A6A6" d="M465.063,260.436h-27.904v-83.712C437.159,79.293,357.866,0,260.436,0
		C163.004,0,83.711,79.293,83.711,176.724v83.712H55.808C24.997,260.436,0,285.433,0,316.242v223.23
		c0,30.811,24.997,55.808,55.808,55.808h409.255c30.811,0,55.809-24.997,55.809-55.808v-223.23
		C520.872,285.433,495.874,260.436,465.063,260.436z M344.147,260.436H176.724v-83.712c0-46.157,37.554-83.711,83.712-83.711
		c46.157,0,83.711,37.554,83.711,83.711V260.436z"/>
</g>
</svg>
