<?xml version="1.0" encoding="utf-8"?>
<!-- Generator: Adobe Illustrator 16.0.0, SVG Export Plug-In . SVG Version: 6.00 Build 0)  -->
<!DOCTYPE svg PUBLIC "-//W3C//DTD SVG 1.1//EN" "http://www.w3.org/Graphics/SVG/1.1/DTD/svg11.dtd">
<svg version="1.1" id="圖層_1" xmlns="http://www.w3.org/2000/svg" xmlns:xlink="http://www.w3.org/1999/xlink" x="0px" y="0px"
	 width="532px" height="595.28px" viewBox="0 0 532 595.28" enable-background="new 0 0 532 595.28" xml:space="preserve">
<g>
	<path fill="#A6A6A6" d="M265.944,297.641c82.2,0,148.821-66.621,148.821-148.82C414.766,66.62,348.145,0,265.944,0
		c-82.2,0-148.82,66.62-148.82,148.82C117.124,231.02,183.745,297.641,265.944,297.641z M370.119,334.845h-19.416
		c-25.813,11.859-54.529,18.603-84.759,18.603c-30.229,0-58.831-6.743-84.758-18.603h-19.416
		c-86.27,0-156.261,69.992-156.261,156.262v48.366c0,30.811,24.997,55.808,55.808,55.808h409.255
		c30.811,0,55.809-24.997,55.809-55.808v-48.366C526.381,404.837,456.389,334.845,370.119,334.845z"/>
</g>
</svg>
